<?xml version="1.0" standalone="no"?>
<!DOCTYPE svg PUBLIC "-//W3C//DTD SVG 20010904//EN"
 "http://www.w3.org/TR/2001/REC-SVG-20010904/DTD/svg10.dtd">
<svg version="1.0" xmlns="http://www.w3.org/2000/svg"
 width="500.000000pt" height="500.000000pt" viewBox="0 0 500.000000 500.000000"
 preserveAspectRatio="xMidYMid meet">
<metadata>
Created by potrace 1.14, written by Peter Selinger 2001-2017
</metadata>
<g transform="translate(0.000000,500.000000) scale(0.100000,-0.100000)"
fill="#000000" stroke="none">
<path d="M2427 4213 c-1 -1 -31 -3 -66 -5 -34 -2 -65 -6 -67 -10 -2 -3 -15 -5
-29 -3 -14 1 -25 -1 -25 -6 0 -5 -7 -6 -15 -3 -8 4 -23 3 -32 -1 -10 -4 -30
-9 -45 -11 -41 -6 -52 -8 -58 -14 -3 -3 -34 -14 -70 -25 -36 -10 -74 -26 -84
-34 -11 -9 -16 -11 -13 -4 4 6 -18 -2 -48 -17 -30 -15 -55 -25 -55 -22 0 4 -4
2 -8 -5 -4 -6 -14 -13 -22 -15 -8 -2 -22 -10 -32 -19 -10 -9 -31 -22 -46 -30
-15 -8 -33 -20 -40 -26 -7 -7 -21 -13 -29 -13 -9 0 -13 -3 -10 -6 4 -4 -14
-20 -38 -36 -25 -17 -45 -34 -45 -39 0 -5 -5 -9 -11 -9 -18 0 -194 -182 -255
-265 -32 -44 -63 -83 -69 -87 -5 -4 -6 -8 -2 -8 4 0 -1 -10 -13 -22 -11 -12
-20 -28 -20 -35 0 -7 -4 -13 -10 -13 -5 0 -10 -6 -10 -13 0 -7 -9 -23 -20 -35
-11 -12 -20 -25 -20 -29 1 -10 -32 -86 -40 -93 -6 -5 -44 -99 -45 -110 0 -3
-3 -9 -6 -15 -8 -13 -23 -78 -21 -87 1 -5 -2 -8 -6 -8 -5 0 -9 -6 -9 -12 -1
-15 -17 -93 -23 -108 -1 -3 -3 -9 -5 -15 -1 -5 -3 -12 -4 -15 -1 -3 -4 -21 -7
-40 -8 -63 -13 -104 -18 -145 -6 -52 -8 -333 -3 -343 3 -4 8 -34 11 -67 3 -33
8 -71 12 -85 3 -14 7 -36 10 -50 18 -99 51 -216 83 -300 25 -65 28 -71 76
-175 20 -44 36 -81 36 -83 -4 -11 161 -234 212 -287 27 -27 52 -54 55 -60 8
-12 110 -104 138 -125 56 -42 128 -85 137 -82 4 1 7 -2 7 -8 0 -14 159 -92
172 -84 6 4 8 3 5 -3 -4 -6 3 -14 16 -18 12 -4 24 -8 27 -10 52 -23 234 -72
262 -71 15 1 24 -2 22 -6 -3 -4 5 -8 18 -9 13 0 43 -3 68 -7 58 -9 342 -9 400
0 74 12 141 25 150 29 3 1 10 3 15 3 40 6 145 41 145 48 0 5 4 7 8 4 12 -7
115 33 124 47 4 7 8 9 8 5 0 -8 83 34 106 53 8 6 14 8 14 5 0 -4 6 -2 13 4 6
6 41 29 77 52 36 23 67 45 68 50 2 4 8 8 13 8 6 0 28 17 51 37 74 68 200 193
195 193 -3 0 10 17 28 38 19 20 35 41 35 46 0 5 8 16 18 25 10 9 32 38 48 64
16 27 39 65 52 85 12 21 28 51 36 67 7 17 25 55 39 85 54 114 110 276 102 291
-3 4 0 9 5 11 6 2 12 20 13 41 1 20 4 37 7 37 6 0 12 29 14 73 0 15 4 27 7 27
4 0 7 10 7 23 1 12 4 45 7 72 9 72 10 297 2 391 -7 81 -19 154 -36 223 -5 20
-12 49 -15 64 -4 17 -11 25 -18 21 -6 -4 -8 -3 -5 3 6 10 -10 67 -32 118 -63
142 -166 325 -183 325 -5 0 -8 6 -8 13 0 6 -17 31 -38 54 -20 23 -44 51 -52
63 -22 32 -107 117 -174 175 -32 28 -72 62 -88 78 -17 15 -35 27 -42 27 -6 0
-18 9 -26 20 -8 11 -20 20 -27 20 -7 0 -13 4 -13 8 0 10 -50 37 -62 34 -5 -1
-8 3 -8 9 0 10 -68 44 -82 41 -5 -1 -8 2 -8 7 0 18 -275 121 -321 121 -11 0
-19 3 -19 8 0 4 -15 8 -32 9 -18 1 -44 4 -58 7 -52 12 -325 28 -333 19z"/>
</g>
</svg>
